{
  "accessors": [
    {
      "bufferView": 0,
      "componentType": 5126,
      "count": 140,
      "max": [
        0.0,
        0.0,
        8.20827579498291
      ],
      "min": [
        -74.96031188964844,
        -56.08671188354492,
        0.0
      ],
      "type": "VEC3"
    },
    {
      "bufferView": 0,
      "byteOffset": 12,
      "componentType": 5126,
      "count": 140,
      "type": "VEC3"
    },
    {
      "bufferView": 1,
      "componentType": 5125,
      "count": 348,
      "type": "SCALAR"
    },
    {
      "bufferView": 2,
      "componentType": 5126,
      "count": 140,
      "max": [
        0.0,
        0.0,
        8.20827579498291
      ],
      "min": [
        -74.96031188964844,
        -56.08671188354492,
        0.0
      ],
      "type": "VEC3"
    },
    {
      "bufferView": 2,
      "byteOffset": 12,
      "componentType": 5126,
      "count": 140,
      "type": "VEC3"
    },
    {
      "bufferView": 3,
      "componentType": 5125,
      "count": 348,
      "type": "SCALAR"
    },
    {
      "bufferView": 4,
      "componentType": 5126,
      "count": 779,
      "max": [
        1.6998651027679443,
        1.6895239353179932,
        1.5767658948898315
      ],
      "min": [
        -1.6956002712249756,
        -1.7059414386749268,
        0.3452092409133911
      ],
      "type": "VEC3"
    },
    {
      "bufferView": 4,
      "byteOffset": 12,
      "componentType": 5126,
      "count": 779,
      "type": "VEC3"
    },
    {
      "bufferView": 5,
      "componentType": 5125,
      "count": 2352,
      "type": "SCALAR"
    },
    {
      "bufferView": 6,
      "componentType": 5126,
      "count": 779,
      "max": [
        1.6998651027679443,
        1.6895239353179932,
        1.5767658948898315
      ],
      "min": [
        -1.6956002712249756,
        -1.7059414386749268,
        0.3452092409133911
      ],
      "type": "VEC3"
    },
    {
      "bufferView": 6,
      "byteOffset": 12,
      "componentType": 5126,
      "count": 779,
      "type": "VEC3"
    },
    {
      "bufferView": 7,
      "componentType": 5125,
      "count": 2352,
      "type": "SCALAR"
    },
    {
      "bufferView": 8,
      "componentType": 5126,
      "count": 233,
      "max": [
        0.6090711355209351,
        0.6090711355209351,
        56.437583923339844
      ],
      "min": [
        -0.6090711355209351,
        -0.6090711355209351,
        0.0
      ],
      "type": "VEC3"
    },
    {
      "bufferView": 8,
      "byteOffset": 12,
      "componentType": 5126,
      "count": 233,
      "type": "VEC3"
    },
    {
      "bufferView": 9,
      "componentType": 5125,
      "count": 960,
      "type": "SCALAR"
    },
    {
      "bufferView": 10,
      "componentType": 5126,
      "count": 233,
      "max": [
        23.398147583007813,
        23.398147583007813,
        3.869452714920044
      ],
      "min": [
        -23.398147583007813,
        -23.398147583007813,
        0.0
      ],
      "type": "VEC3"
    },
    {
      "bufferView": 10,
      "byteOffset": 12,
      "componentType": 5126,
      "count": 233,
      "type": "VEC3"
    },
    {
      "bufferView": 11,
      "componentType": 5125,
      "count": 960,
      "type": "SCALAR"
    },
    {
      "bufferView": 12,
      "componentType": 5126,
      "count": 15516,
      "max": [
        22.904232025146484,
        22.90423011779785,
        10.245349884033203
      ],
      "min": [
        -22.90423011779785,
        -22.90423011779785,
        7.4215087890625
      ],
      "type": "VEC3"
    },
    {
      "bufferView": 12,
      "byteOffset": 12,
      "componentType": 5126,
      "count": 15516,
      "type": "VEC3"
    },
    {
      "bufferView": 13,
      "componentType": 5125,
      "count": 40800,
      "type": "SCALAR"
    },
    {
      "bufferView": 14,
      "componentType": 5126,
      "count": 7874,
      "max": [
        38.697288513183594,
        14.0,
        53.0
      ],
      "min": [
        -36.73670196533203,
        -14.474645614624023,
        -0.945275068283081
      ],
      "type": "VEC3"
    },
    {
      "bufferView": 14,
      "byteOffset": 12,
      "componentType": 5126,
      "count": 7874,
      "type": "VEC3"
    },
    {
      "bufferView": 15,
      "componentType": 5125,
      "count": 19620,
      "type": "SCALAR"
    }
  ],
  "asset": {
    "version": "2.0"
  },
  "bufferViews": [
    {
      "buffer": 0,
      "byteLength": 4480,
      "byteStride": 32,
      "target": 34962
    },
    {
      "buffer": 0,
      "byteLength": 1392,
      "byteOffset": 4480,
      "target": 34963
    },
    {
      "buffer": 0,
      "byteLength": 4480,
      "byteOffset": 5872,
      "byteStride": 32,
      "target": 34962
    },
    {
      "buffer": 0,
      "byteLength": 1392,
      "byteOffset": 10352,
      "target": 34963
    },
    {
      "buffer": 0,
      "byteLength": 24928,
      "byteOffset": 11744,
      "byteStride": 32,
      "target": 34962
    },
    {
      "buffer": 0,
      "byteLength": 9408,
      "byteOffset": 36672,
      "target": 34963
    },
    {
      "buffer": 0,
      "byteLength": 24928,
      "byteOffset": 46080,
      "byteStride": 32,
      "target": 34962
    },
    {
      "buffer": 0,
      "byteLength": 9408,
      "byteOffset": 71008,
      "target": 34963
    },
    {
      "buffer": 0,
      "byteLength": 7456,
      "byteOffset": 80416,
      "byteStride": 32,
      "target": 34962
    },
    {
      "buffer": 0,
      "byteLength": 3840,
      "byteOffset": 87872,
      "target": 34963
    },
    {
      "buffer": 0,
      "byteLength": 7456,
      "byteOffset": 91712,
      "byteStride": 32,
      "target": 34962
    },
    {
      "buffer": 0,
      "byteLength": 3840,
      "byteOffset": 99168,
      "target": 34963
    },
    {
      "buffer": 0,
      "byteLength": 496512,
      "byteOffset": 103008,
      "byteStride": 32,
      "target": 34962
    },
    {
      "buffer": 0,
      "byteLength": 163200,
      "byteOffset": 599520,
      "target": 34963
    },
    {
      "buffer": 0,
      "byteLength": 251968,
      "byteOffset": 762720,
      "byteStride": 32,
      "target": 34962
    },
    {
      "buffer": 0,
      "byteLength": 78480,
      "byteOffset": 1014688,
      "target": 34963
    }
  ],
  "buffers": [
    {
      "byteLength": 1093168,
      "uri": "ACv2.bin"
    }
  ],
  "materials": [
    {
      "name": "LMaterial__21",
      "pbrMetallicRoughness": {
        "baseColorFactor": [
          0.5295230150222778,
          0.5295230150222778,
          0.62534499168396,
          1.0
        ],
        "roughnessFactor": 0.5099999904632568
      }
    },
    {
      "name": "Plastic__23",
      "pbrMetallicRoughness": {
        "baseColorFactor": [
          0.7969170212745667,
          0.7969170212745667,
          0.7969170212745667,
          1.0
        ],
        "metallicFactor": 0.0,
        "roughnessFactor": 0.5464469790458679
      }
    },
    {
      "name": "fallback Material",
      "pbrMetallicRoughness": {
        "baseColorFactor": [
          0.0,
          0.0,
          0.0,
          1.0
        ]
      }
    },
    {
      "name": "Material__24",
      "pbrMetallicRoughness": {
        "baseColorFactor": [
          0.7226729989051819,
          0.7226729989051819,
          0.7226729989051819,
          1.0
        ],
        "metallicFactor": 0.0,
        "roughnessFactor": 0.5464469790458679
      }
    }
  ],
  "meshes": [
    {
      "name": "L-Ext001",
      "primitives": [
        {
          "attributes": {
            "NORMAL": 1,
            "POSITION": 0
          },
          "indices": 2,
          "material": 0,
          "mode": 4
        }
      ]
    },
    {
      "name": "L-Ext002",
      "primitives": [
        {
          "attributes": {
            "NORMAL": 4,
            "POSITION": 3
          },
          "indices": 5,
          "material": 0,
          "mode": 4
        }
      ]
    },
    {
      "name": "Sphere002",
      "primitives": [
        {
          "attributes": {
            "NORMAL": 7,
            "POSITION": 6
          },
          "indices": 8,
          "material": 0,
          "mode": 4
        }
      ]
    },
    {
      "name": "Sphere003",
      "primitives": [
        {
          "attributes": {
            "NORMAL": 10,
            "POSITION": 9
          },
          "indices": 11,
          "material": 0,
          "mode": 4
        }
      ]
    },
    {
      "name": "Cylinder004",
      "primitives": [
        {
          "attributes": {
            "NORMAL": 13,
            "POSITION": 12
          },
          "indices": 14,
          "material": 1,
          "mode": 4
        }
      ]
    },
    {
      "name": "Cylinder003",
      "primitives": [
        {
          "attributes": {
            "NORMAL": 16,
            "POSITION": 15
          },
          "indices": 17,
          "material": 2,
          "mode": 4
        }
      ]
    },
    {
      "name": "Cylinder002",
      "primitives": [
        {
          "attributes": {
            "NORMAL": 19,
            "POSITION": 18
          },
          "indices": 20,
          "material": 3,
          "mode": 4
        }
      ]
    },
    {
      "name": "AC",
      "primitives": [
        {
          "attributes": {
            "NORMAL": 22,
            "POSITION": 21
          },
          "indices": 23,
          "material": 1,
          "mode": 4
        }
      ]
    }
  ],
  "nodes": [
    {
      "matrix": [
        0.01,
        0.0,
        0.0,
        0.0,
        0.0,
        0.01,
        0.0,
        0.0,
        0.0,
        0.0,
        0.01,
        0.0,
        0.0,
        0.0,
        0.0,
        1.0
      ],
      "mesh": 0,
      "name": "L-Ext001"
    },
    {
      "children": [
        0
      ],
      "matrix": [
        9.84068187392367e-17,
        0.6920175552368162,
        8.25222645772783e-09,
        0.0,
        8.798728856618254e-08,
        8.25222645772783e-09,
        -0.6920175552368162,
        0.0,
        -0.6920175552368162,
        1.1476447284766143e-15,
        -8.798728856618254e-08,
        0.0,
        0.3601988220214844,
        0.46700443267822267,
        -0.287974853515625,
        1.0
      ]
    },
    {
      "matrix": [
        0.01,
        0.0,
        0.0,
        0.0,
        0.0,
        0.01,
        0.0,
        0.0,
        0.0,
        0.0,
        0.01,
        0.0,
        0.0,
        0.0,
        0.0,
        1.0
      ],
      "mesh": 1,
      "name": "L-Ext002"
    },
    {
      "children": [
        2
      ],
      "matrix": [
        9.84068187392367e-17,
        0.6920175552368162,
        8.25222645772783e-09,
        0.0,
        8.798728856618254e-08,
        8.25222645772783e-09,
        -0.6920175552368162,
        0.0,
        -0.6920175552368162,
        1.1476447284766143e-15,
        -8.798728856618254e-08,
        0.0,
        -0.23143592834472657,
        0.46700443267822267,
        -0.287974853515625,
        1.0
      ]
    },
    {
      "matrix": [
        0.01,
        0.0,
        0.0,
        0.0,
        0.0,
        0.01,
        0.0,
        0.0,
        0.0,
        0.0,
        0.01,
        0.0,
        0.0,
        0.0,
        0.0,
        1.0
      ],
      "mesh": 2,
      "name": "Sphere002"
    },
    {
      "children": [
        4
      ],
      "matrix": [
        0.28246504068374634,
        0.0,
        0.0,
        0.0,
        0.0,
        0.28246504068374634,
        -2.1325517352011047e-08,
        0.0,
        0.0,
        2.1325517352011047e-08,
        0.28246504068374634,
        0.0,
        -0.27711894989013675,
        0.016571249961853027,
        0.09122750282287598,
        1.0
      ]
    },
    {
      "matrix": [
        0.01,
        0.0,
        0.0,
        0.0,
        0.0,
        0.01,
        0.0,
        0.0,
        0.0,
        0.0,
        0.01,
        0.0,
        0.0,
        0.0,
        0.0,
        1.0
      ],
      "mesh": 3,
      "name": "Sphere003"
    },
    {
      "children": [
        6
      ],
      "matrix": [
        0.28246504068374634,
        0.0,
        0.0,
        0.0,
        0.0,
        0.28246504068374634,
        -2.1325517352011047e-08,
        0.0,
        0.0,
        2.1325517352011047e-08,
        0.28246504068374634,
        0.0,
        0.03,
        0.5192329406738281,
        0.09122750282287598,
        1.0
      ]
    },
    {
      "matrix": [
        0.01,
        0.0,
        0.0,
        0.0,
        0.0,
        0.01,
        0.0,
        0.0,
        0.0,
        0.0,
        0.01,
        0.0,
        0.0,
        0.0,
        0.0,
        1.0
      ],
      "mesh": 4,
      "name": "Cylinder004"
    },
    {
      "children": [
        8
      ],
      "matrix": [
        1.4889219812630472e-07,
        0.47430515289306646,
        0.0,
        0.0,
        0.0,
        0.0,
        -0.47430515289306646,
        0.0,
        -1.1240483522415161,
        3.528572847244505e-07,
        0.0,
        0.0,
        0.3484894943237305,
        0.4936218643188477,
        0.09277101516723633,
        1.0
      ]
    },
    {
      "matrix": [
        0.01,
        0.0,
        0.0,
        0.0,
        0.0,
        0.01,
        0.0,
        0.0,
        0.0,
        0.0,
        0.01,
        0.0,
        0.0,
        0.0,
        0.0,
        1.0
      ],
      "mesh": 5,
      "name": "Cylinder003"
    },
    {
      "children": [
        10
      ],
      "matrix": [
        1.0,
        -1.6940658945086007e-21,
        0.0,
        0.0,
        1.6940658945086007e-21,
        1.0,
        1.6292068494294654e-07,
        0.0,
        -2.7599837587182663e-28,
        -1.6292068494294654e-07,
        1.0,
        0.0,
        -0.05542453765869141,
        0.24162864685058594,
        -0.015058960914611817,
        1.0
      ]
    },
    {
      "matrix": [
        0.01,
        0.0,
        0.0,
        0.0,
        0.0,
        0.01,
        0.0,
        0.0,
        0.0,
        0.0,
        0.01,
        0.0,
        0.0,
        0.0,
        0.0,
        1.0
      ],
      "mesh": 6,
      "name": "Cylinder002"
    },
    {
      "children": [
        12
      ],
      "matrix": [
        1.0,
        0.0,
        0.0,
        0.0,
        0.0,
        1.0,
        1.6292068494294654e-07,
        0.0,
        0.0,
        -1.6292068494294654e-07,
        1.0,
        0.0,
        -0.051887702941894535,
        0.2459392547607422,
        0.013999147415161133,
        1.0
      ]
    },
    {
      "matrix": [
        0.01,
        0.0,
        0.0,
        0.0,
        0.0,
        0.01,
        0.0,
        0.0,
        0.0,
        0.0,
        0.01,
        0.0,
        0.0,
        0.0,
        0.0,
        1.0
      ],
      "mesh": 7,
      "name": "AC"
    },
    {
      "children": [
        14
      ],
      "matrix": [
        1.0,
        0.0,
        0.0,
        0.0,
        0.0,
        0.0,
        -1.0,
        0.0,
        0.0,
        1.0,
        0.0,
        0.0,
        0.05346283912658691,
        0.0,
        -0.04877249717712402,
        1.0
      ]
    }
  ],
  "scenes": [
    {
      "nodes": [
        1,
        3,
        5,
        7,
        9,
        11,
        13,
        15
      ]
    }
  ]
}
